<mxfile host="app.diagrams.net" modified="2023-10-15T14:26:12.601Z" agent="Mozilla/5.0 (Windows NT 10.0; Win64; x64) AppleWebKit/537.36 (KHTML, like Gecko) Chrome/117.0.0.0 Safari/537.36 Edg/117.0.2045.60" etag="Duf6_OgENY8P89_uv0lM" version="22.0.4" type="github">
  <diagram name="第 1 页" id="JBXGx9dqmPueIJxrrY5u">
    <mxGraphModel dx="906" dy="605" grid="0" gridSize="10" guides="1" tooltips="1" connect="1" arrows="1" fold="1" page="1" pageScale="1" pageWidth="827" pageHeight="1169" background="#E6FFCC" math="0" shadow="0">
      <root>
        <mxCell id="0" />
        <mxCell id="1" parent="0" />
        <mxCell id="47rTT45GImGKh9tPLttj-21" style="edgeStyle=orthogonalEdgeStyle;rounded=0;orthogonalLoop=1;jettySize=auto;html=1;" edge="1" parent="1" source="47rTT45GImGKh9tPLttj-1" target="47rTT45GImGKh9tPLttj-11">
          <mxGeometry relative="1" as="geometry" />
        </mxCell>
        <mxCell id="47rTT45GImGKh9tPLttj-37" style="edgeStyle=orthogonalEdgeStyle;rounded=0;orthogonalLoop=1;jettySize=auto;html=1;exitX=1;exitY=0.5;exitDx=0;exitDy=0;entryX=0;entryY=0.5;entryDx=0;entryDy=0;" edge="1" parent="1" source="47rTT45GImGKh9tPLttj-1" target="47rTT45GImGKh9tPLttj-6">
          <mxGeometry relative="1" as="geometry" />
        </mxCell>
        <mxCell id="47rTT45GImGKh9tPLttj-38" style="edgeStyle=orthogonalEdgeStyle;rounded=0;orthogonalLoop=1;jettySize=auto;html=1;exitX=1;exitY=0.5;exitDx=0;exitDy=0;entryX=0;entryY=0.5;entryDx=0;entryDy=0;" edge="1" parent="1" source="47rTT45GImGKh9tPLttj-1" target="47rTT45GImGKh9tPLttj-5">
          <mxGeometry relative="1" as="geometry" />
        </mxCell>
        <mxCell id="47rTT45GImGKh9tPLttj-39" style="edgeStyle=orthogonalEdgeStyle;rounded=0;orthogonalLoop=1;jettySize=auto;html=1;exitX=1;exitY=0.5;exitDx=0;exitDy=0;entryX=0;entryY=0.5;entryDx=0;entryDy=0;" edge="1" parent="1" source="47rTT45GImGKh9tPLttj-1" target="47rTT45GImGKh9tPLttj-7">
          <mxGeometry relative="1" as="geometry" />
        </mxCell>
        <mxCell id="47rTT45GImGKh9tPLttj-40" style="edgeStyle=orthogonalEdgeStyle;rounded=0;orthogonalLoop=1;jettySize=auto;html=1;exitX=1;exitY=0.5;exitDx=0;exitDy=0;entryX=0;entryY=0.5;entryDx=0;entryDy=0;" edge="1" parent="1" source="47rTT45GImGKh9tPLttj-1" target="47rTT45GImGKh9tPLttj-8">
          <mxGeometry relative="1" as="geometry" />
        </mxCell>
        <mxCell id="47rTT45GImGKh9tPLttj-41" style="edgeStyle=orthogonalEdgeStyle;rounded=0;orthogonalLoop=1;jettySize=auto;html=1;exitX=1;exitY=0.5;exitDx=0;exitDy=0;entryX=0;entryY=0.5;entryDx=0;entryDy=0;" edge="1" parent="1" source="47rTT45GImGKh9tPLttj-1" target="47rTT45GImGKh9tPLttj-2">
          <mxGeometry relative="1" as="geometry" />
        </mxCell>
        <mxCell id="47rTT45GImGKh9tPLttj-42" style="edgeStyle=orthogonalEdgeStyle;rounded=0;orthogonalLoop=1;jettySize=auto;html=1;exitX=1;exitY=0.5;exitDx=0;exitDy=0;entryX=0;entryY=0.5;entryDx=0;entryDy=0;" edge="1" parent="1" source="47rTT45GImGKh9tPLttj-1" target="47rTT45GImGKh9tPLttj-9">
          <mxGeometry relative="1" as="geometry" />
        </mxCell>
        <mxCell id="47rTT45GImGKh9tPLttj-43" style="edgeStyle=orthogonalEdgeStyle;rounded=0;orthogonalLoop=1;jettySize=auto;html=1;exitX=1;exitY=0.5;exitDx=0;exitDy=0;entryX=0;entryY=0.5;entryDx=0;entryDy=0;" edge="1" parent="1" source="47rTT45GImGKh9tPLttj-1" target="47rTT45GImGKh9tPLttj-4">
          <mxGeometry relative="1" as="geometry" />
        </mxCell>
        <mxCell id="47rTT45GImGKh9tPLttj-44" style="edgeStyle=orthogonalEdgeStyle;rounded=0;orthogonalLoop=1;jettySize=auto;html=1;exitX=1;exitY=0.5;exitDx=0;exitDy=0;entryX=0;entryY=0.5;entryDx=0;entryDy=0;" edge="1" parent="1" source="47rTT45GImGKh9tPLttj-1" target="47rTT45GImGKh9tPLttj-10">
          <mxGeometry relative="1" as="geometry" />
        </mxCell>
        <mxCell id="47rTT45GImGKh9tPLttj-52" style="edgeStyle=orthogonalEdgeStyle;rounded=0;orthogonalLoop=1;jettySize=auto;html=1;exitX=0.5;exitY=1;exitDx=0;exitDy=0;entryX=0.5;entryY=0;entryDx=0;entryDy=0;" edge="1" parent="1" source="47rTT45GImGKh9tPLttj-1" target="47rTT45GImGKh9tPLttj-3">
          <mxGeometry relative="1" as="geometry">
            <Array as="points">
              <mxPoint x="476" y="360" />
              <mxPoint x="400" y="360" />
            </Array>
          </mxGeometry>
        </mxCell>
        <mxCell id="47rTT45GImGKh9tPLttj-1" value="主窗体" style="rounded=0;whiteSpace=wrap;html=1;fillColor=#FF9933;" vertex="1" parent="1">
          <mxGeometry x="420" y="260" width="111" height="60" as="geometry" />
        </mxCell>
        <mxCell id="47rTT45GImGKh9tPLttj-2" value="&lt;p class=&quot;MsoNormal&quot;&gt;&lt;font face=&quot;宋体&quot;&gt;&lt;b&gt;可视化冒泡排序&lt;/b&gt;&lt;/font&gt;&lt;/p&gt;" style="rounded=0;whiteSpace=wrap;html=1;fillColor=#FF9933;" vertex="1" parent="1">
          <mxGeometry x="619" y="180" width="120" height="30" as="geometry" />
        </mxCell>
        <mxCell id="47rTT45GImGKh9tPLttj-53" style="edgeStyle=orthogonalEdgeStyle;rounded=0;orthogonalLoop=1;jettySize=auto;html=1;exitX=0.5;exitY=1;exitDx=0;exitDy=0;entryX=0.5;entryY=0;entryDx=0;entryDy=0;" edge="1" parent="1" source="47rTT45GImGKh9tPLttj-3" target="47rTT45GImGKh9tPLttj-24">
          <mxGeometry relative="1" as="geometry" />
        </mxCell>
        <mxCell id="47rTT45GImGKh9tPLttj-3" value="最强排序窗体" style="rounded=0;whiteSpace=wrap;html=1;fillColor=#FF9933;" vertex="1" parent="1">
          <mxGeometry x="340" y="400" width="120" height="30" as="geometry" />
        </mxCell>
        <mxCell id="47rTT45GImGKh9tPLttj-4" value="&lt;p class=&quot;MsoNormal&quot;&gt;&lt;font face=&quot;宋体&quot;&gt;&lt;b&gt;可视化插入排序&lt;/b&gt;&lt;/font&gt;&lt;/p&gt;" style="rounded=0;whiteSpace=wrap;html=1;fillColor=#FF9933;" vertex="1" parent="1">
          <mxGeometry x="619" y="140" width="120" height="30" as="geometry" />
        </mxCell>
        <mxCell id="47rTT45GImGKh9tPLttj-5" value="&lt;b style=&quot;border-color: var(--border-color); font-family: 宋体;&quot;&gt;可视化&lt;b style=&quot;background-color: initial;&quot;&gt;选择排序&lt;/b&gt;&lt;br&gt;&lt;/b&gt;" style="rounded=0;whiteSpace=wrap;html=1;fillColor=#FF9933;" vertex="1" parent="1">
          <mxGeometry x="619" y="220" width="120" height="30" as="geometry" />
        </mxCell>
        <mxCell id="47rTT45GImGKh9tPLttj-6" value="&lt;b style=&quot;border-color: var(--border-color); font-family: 宋体;&quot;&gt;可视化&lt;b style=&quot;background-color: initial;&quot;&gt;希尔排序&lt;/b&gt;&lt;br&gt;&lt;/b&gt;" style="rounded=0;whiteSpace=wrap;html=1;fillColor=#FF9933;" vertex="1" parent="1">
          <mxGeometry x="619" y="260" width="120" height="30" as="geometry" />
        </mxCell>
        <mxCell id="47rTT45GImGKh9tPLttj-7" value="&lt;p class=&quot;MsoNormal&quot;&gt;&lt;font face=&quot;宋体&quot;&gt;&lt;b&gt;可视化快速排序&lt;/b&gt;&lt;/font&gt;&lt;/p&gt;" style="rounded=0;whiteSpace=wrap;html=1;fillColor=#FF9933;" vertex="1" parent="1">
          <mxGeometry x="619" y="300" width="120" height="30" as="geometry" />
        </mxCell>
        <mxCell id="47rTT45GImGKh9tPLttj-8" value="&lt;p class=&quot;MsoNormal&quot;&gt;&lt;font face=&quot;宋体&quot;&gt;&lt;b&gt;可视化堆排序&lt;/b&gt;&lt;/font&gt;&lt;/p&gt;" style="rounded=0;whiteSpace=wrap;html=1;fillColor=#FF9933;" vertex="1" parent="1">
          <mxGeometry x="619" y="340" width="120" height="30" as="geometry" />
        </mxCell>
        <mxCell id="47rTT45GImGKh9tPLttj-9" value="&lt;p class=&quot;MsoNormal&quot;&gt;&lt;font face=&quot;宋体&quot;&gt;&lt;b&gt;可视化基数排序&lt;/b&gt;&lt;/font&gt;&lt;/p&gt;" style="rounded=0;whiteSpace=wrap;html=1;fillColor=#FF9933;" vertex="1" parent="1">
          <mxGeometry x="619" y="380" width="120" height="30" as="geometry" />
        </mxCell>
        <mxCell id="47rTT45GImGKh9tPLttj-10" value="&lt;p class=&quot;MsoNormal&quot;&gt;&lt;font face=&quot;宋体&quot;&gt;&lt;b&gt;可视化归并排序&lt;/b&gt;&lt;/font&gt;&lt;/p&gt;" style="rounded=0;whiteSpace=wrap;html=1;fillColor=#FF9933;" vertex="1" parent="1">
          <mxGeometry x="619" y="420" width="120" height="30" as="geometry" />
        </mxCell>
        <mxCell id="47rTT45GImGKh9tPLttj-45" style="edgeStyle=orthogonalEdgeStyle;rounded=0;orthogonalLoop=1;jettySize=auto;html=1;exitX=0;exitY=0.5;exitDx=0;exitDy=0;entryX=1;entryY=0.5;entryDx=0;entryDy=0;" edge="1" parent="1" source="47rTT45GImGKh9tPLttj-11" target="47rTT45GImGKh9tPLttj-33">
          <mxGeometry relative="1" as="geometry" />
        </mxCell>
        <mxCell id="47rTT45GImGKh9tPLttj-46" style="edgeStyle=orthogonalEdgeStyle;rounded=0;orthogonalLoop=1;jettySize=auto;html=1;exitX=0;exitY=0.5;exitDx=0;exitDy=0;entryX=1;entryY=0.5;entryDx=0;entryDy=0;" edge="1" parent="1" source="47rTT45GImGKh9tPLttj-11" target="47rTT45GImGKh9tPLttj-32">
          <mxGeometry relative="1" as="geometry" />
        </mxCell>
        <mxCell id="47rTT45GImGKh9tPLttj-47" style="edgeStyle=orthogonalEdgeStyle;rounded=0;orthogonalLoop=1;jettySize=auto;html=1;exitX=0;exitY=0.5;exitDx=0;exitDy=0;entryX=1;entryY=0.5;entryDx=0;entryDy=0;" edge="1" parent="1" source="47rTT45GImGKh9tPLttj-11" target="47rTT45GImGKh9tPLttj-34">
          <mxGeometry relative="1" as="geometry" />
        </mxCell>
        <mxCell id="47rTT45GImGKh9tPLttj-48" style="edgeStyle=orthogonalEdgeStyle;rounded=0;orthogonalLoop=1;jettySize=auto;html=1;exitX=0;exitY=0.5;exitDx=0;exitDy=0;entryX=1;entryY=0.5;entryDx=0;entryDy=0;" edge="1" parent="1" source="47rTT45GImGKh9tPLttj-11" target="47rTT45GImGKh9tPLttj-35">
          <mxGeometry relative="1" as="geometry" />
        </mxCell>
        <mxCell id="47rTT45GImGKh9tPLttj-49" style="edgeStyle=orthogonalEdgeStyle;rounded=0;orthogonalLoop=1;jettySize=auto;html=1;exitX=0;exitY=0.5;exitDx=0;exitDy=0;entryX=1;entryY=0.5;entryDx=0;entryDy=0;" edge="1" parent="1" source="47rTT45GImGKh9tPLttj-11" target="47rTT45GImGKh9tPLttj-31">
          <mxGeometry relative="1" as="geometry" />
        </mxCell>
        <mxCell id="47rTT45GImGKh9tPLttj-50" style="edgeStyle=orthogonalEdgeStyle;rounded=0;orthogonalLoop=1;jettySize=auto;html=1;exitX=0;exitY=0.5;exitDx=0;exitDy=0;entryX=1;entryY=0.5;entryDx=0;entryDy=0;" edge="1" parent="1" source="47rTT45GImGKh9tPLttj-11" target="47rTT45GImGKh9tPLttj-36">
          <mxGeometry relative="1" as="geometry" />
        </mxCell>
        <mxCell id="47rTT45GImGKh9tPLttj-51" style="edgeStyle=orthogonalEdgeStyle;rounded=0;orthogonalLoop=1;jettySize=auto;html=1;exitX=0;exitY=0.5;exitDx=0;exitDy=0;entryX=1;entryY=0.5;entryDx=0;entryDy=0;" edge="1" parent="1" source="47rTT45GImGKh9tPLttj-11" target="47rTT45GImGKh9tPLttj-28">
          <mxGeometry relative="1" as="geometry" />
        </mxCell>
        <mxCell id="47rTT45GImGKh9tPLttj-55" style="edgeStyle=orthogonalEdgeStyle;rounded=0;orthogonalLoop=1;jettySize=auto;html=1;exitX=0;exitY=0.5;exitDx=0;exitDy=0;entryX=1;entryY=0.5;entryDx=0;entryDy=0;" edge="1" parent="1" source="47rTT45GImGKh9tPLttj-11" target="47rTT45GImGKh9tPLttj-54">
          <mxGeometry relative="1" as="geometry" />
        </mxCell>
        <mxCell id="47rTT45GImGKh9tPLttj-11" value="其他排序c" style="rounded=0;whiteSpace=wrap;html=1;fillColor=#FF9933;" vertex="1" parent="1">
          <mxGeometry x="270" y="275" width="120" height="30" as="geometry" />
        </mxCell>
        <mxCell id="47rTT45GImGKh9tPLttj-24" value="&lt;p class=&quot;MsoNormal&quot;&gt;&lt;font face=&quot;宋体&quot;&gt;&lt;b&gt;最强排序算法&lt;/b&gt;&lt;/font&gt;&lt;/p&gt;" style="rounded=0;whiteSpace=wrap;html=1;fillColor=#FF9933;" vertex="1" parent="1">
          <mxGeometry x="340" y="466" width="120" height="30" as="geometry" />
        </mxCell>
        <mxCell id="47rTT45GImGKh9tPLttj-28" value="&lt;p class=&quot;MsoNormal&quot;&gt;&lt;font face=&quot;宋体&quot;&gt;&lt;b&gt;插入排序&lt;/b&gt;&lt;/font&gt;&lt;/p&gt;" style="rounded=0;whiteSpace=wrap;html=1;fillColor=#FF9933;" vertex="1" parent="1">
          <mxGeometry x="89" y="140" width="120" height="30" as="geometry" />
        </mxCell>
        <mxCell id="47rTT45GImGKh9tPLttj-31" value="&lt;p class=&quot;MsoNormal&quot;&gt;&lt;font face=&quot;宋体&quot;&gt;&lt;b&gt;选择排序&lt;/b&gt;&lt;/font&gt;&lt;/p&gt;" style="rounded=0;whiteSpace=wrap;html=1;fillColor=#FF9933;" vertex="1" parent="1">
          <mxGeometry x="89" y="220" width="120" height="30" as="geometry" />
        </mxCell>
        <mxCell id="47rTT45GImGKh9tPLttj-32" value="&lt;p class=&quot;MsoNormal&quot;&gt;&lt;font face=&quot;宋体&quot;&gt;&lt;b&gt;希尔排序&lt;/b&gt;&lt;/font&gt;&lt;/p&gt;" style="rounded=0;whiteSpace=wrap;html=1;fillColor=#FF9933;" vertex="1" parent="1">
          <mxGeometry x="89" y="260" width="120" height="30" as="geometry" />
        </mxCell>
        <mxCell id="47rTT45GImGKh9tPLttj-33" value="&lt;p class=&quot;MsoNormal&quot;&gt;&lt;font face=&quot;宋体&quot;&gt;&lt;b&gt;快速排序&lt;/b&gt;&lt;/font&gt;&lt;/p&gt;" style="rounded=0;whiteSpace=wrap;html=1;fillColor=#FF9933;" vertex="1" parent="1">
          <mxGeometry x="89" y="300" width="120" height="30" as="geometry" />
        </mxCell>
        <mxCell id="47rTT45GImGKh9tPLttj-34" value="&lt;p class=&quot;MsoNormal&quot;&gt;&lt;font face=&quot;宋体&quot;&gt;&lt;b&gt;堆排序&lt;/b&gt;&lt;/font&gt;&lt;/p&gt;" style="rounded=0;whiteSpace=wrap;html=1;fillColor=#FF9933;" vertex="1" parent="1">
          <mxGeometry x="89" y="340" width="120" height="30" as="geometry" />
        </mxCell>
        <mxCell id="47rTT45GImGKh9tPLttj-35" value="&lt;p class=&quot;MsoNormal&quot;&gt;&lt;font face=&quot;宋体&quot;&gt;&lt;b&gt;基数排序&lt;/b&gt;&lt;/font&gt;&lt;/p&gt;" style="rounded=0;whiteSpace=wrap;html=1;fillColor=#FF9933;" vertex="1" parent="1">
          <mxGeometry x="89" y="380" width="120" height="30" as="geometry" />
        </mxCell>
        <mxCell id="47rTT45GImGKh9tPLttj-36" value="&lt;p class=&quot;MsoNormal&quot;&gt;&lt;font face=&quot;宋体&quot;&gt;&lt;b&gt;归并排序&lt;/b&gt;&lt;/font&gt;&lt;/p&gt;" style="rounded=0;whiteSpace=wrap;html=1;fillColor=#FF9933;" vertex="1" parent="1">
          <mxGeometry x="89" y="420" width="120" height="30" as="geometry" />
        </mxCell>
        <mxCell id="47rTT45GImGKh9tPLttj-54" value="&lt;p class=&quot;MsoNormal&quot;&gt;&lt;font face=&quot;宋体&quot;&gt;&lt;b&gt;插入排序&lt;/b&gt;&lt;/font&gt;&lt;/p&gt;" style="rounded=0;whiteSpace=wrap;html=1;fillColor=#FF9933;" vertex="1" parent="1">
          <mxGeometry x="89" y="180" width="120" height="30" as="geometry" />
        </mxCell>
      </root>
    </mxGraphModel>
  </diagram>
</mxfile>
